<svg id="Layer_1" data-name="Layer 1" xmlns="http://www.w3.org/2000/svg" xmlns:xlink="http://www.w3.org/1999/xlink" viewBox="0 0 706.44 218.11"><defs><style>.cls-1{fill:url(#linear-gradient);}.cls-2{fill:#0aa8cb;}.cls-3{fill:#254437;}.cls-4{fill:#b18670;}.cls-5{fill:#fdfdf1;}.cls-6{fill:url(#linear-gradient-2);}.cls-7{fill:url(#linear-gradient-3);}.cls-8{fill:url(#linear-gradient-4);}.cls-9{font-size:88.15px;font-family:AndThenItEnds, And Then It Ends;}</style><linearGradient id="linear-gradient" x1="188.45" y1="435.04" x2="345.25" y2="588.57" gradientUnits="userSpaceOnUse"><stop offset="0" stop-color="#1cf0fd"/><stop offset="1" stop-color="#015b71"/></linearGradient><linearGradient id="linear-gradient-2" x1="207.53" y1="444.28" x2="351.26" y2="583.11" gradientUnits="userSpaceOnUse"><stop offset="0" stop-color="#10c3e8"/><stop offset="1" stop-color="#02273f"/></linearGradient><linearGradient id="linear-gradient-3" x1="591.54" y1="554.7" x2="657.86" y2="619.64" gradientTransform="matrix(-1, 0, 0, 1, 1489.25, 0)" xlink:href="#linear-gradient"/><linearGradient id="linear-gradient-4" x1="599.61" y1="558.61" x2="660.4" y2="617.33" gradientTransform="matrix(-1, 0, 0, 1, 1489.25, 0)" xlink:href="#linear-gradient-2"/></defs><path class="cls-1" d="M351.89,581c1.72,3.6,3.61,7.12,5.41,10.69l-.8.86c-2.08-4.1-4.13-8.22-6.25-12.29-7.43-14.22-15.85-27.79-26.81-39.61a139.13,139.13,0,0,0-15.66-14.26c-10.27-8.17-21-15.68-31.83-23.09-11.29-7.73-22.63-15.35-34-23a2.11,2.11,0,0,0-1.79-.53c1.89,1.53,3.57,3,5.36,4.32,8.61,6.42,17.27,12.77,25.88,19.2,12.23,9.12,24.63,18,36.3,27.86s22,20.8,30.35,33.64c2.77,4.27,5.3,8.66,7.69,13.14l0,0h0c1.7,3.18,3.32,6.39,4.9,9.64a47.08,47.08,0,0,1,3.19,6.78l-1.59.06c-1.25-3.55-2.59-7.07-4.18-10.48a7.35,7.35,0,0,0-2.46-2.79,1.79,1.79,0,0,0-2.7.25c-.71.8-1.43,1.59-2.16,2.38a.83.83,0,0,1-.86.33c-.42-.11-.33-.5-.36-.81a18.26,18.26,0,0,1-.14-1.95c0-1.08-.44-1.45-1.51-1.45-1.62,0-3.24-.16-4.87-.24-.37,0-.8.06-.84-.47s.43-.53.78-.59c.6-.08,1.21-.09,1.8-.19,1.15-.18,2.3-.4,3.65-.64-.72-.36-1.25-.64-1.79-.89-1.69-.77-3.4-1.51-5.09-2.3-.28-.13-.84-.15-.58-.72a.71.71,0,0,1,.93-.39l1.08.28c1.75.49,3.49,1,5.24,1.47.45.12.93.25,1.24-.28s-.15-.77-.39-1.08a12.74,12.74,0,0,0-2.85-2.63c-2.84-2-5.65-3.92-8.44-5.94a138.94,138.94,0,0,0-13-8.6c-12.26-6.94-24.87-13.21-37.42-19.61-8.16-4.16-16.38-8.21-24.44-12.57-.53-.29-.93-.55-.88-1.25s.61-.73,1.09-.84l4.2-1,12.17-2.86,9-2.11c1.51-.36,3-.77,4.52-1.15-.11-.47-.43-.49-.67-.57a41,41,0,0,0-29.08.79c-6.54,2.66-12.71,2.79-18.46-1.6-5.25-4-10.39-8.16-15.74-12-.23-.17-.61-.3-.54-.73,9.63-3.41,16.24-7.05,17.61-9.76-.39.1-.76.16-1.11.28a55.54,55.54,0,0,1-20.85,3.06,3.48,3.48,0,0,1-2.67-1.23,48.09,48.09,0,0,1-8-12.68c-.38-.88-.18-1,.71-1.17a86.07,86.07,0,0,0,17-3.8,11.63,11.63,0,0,0,4-1.89,24.64,24.64,0,0,0-3.45.14,39.53,39.53,0,0,1-18.88-2.57,4.52,4.52,0,0,1-3.15-4.28,54.72,54.72,0,0,1,2.9-22.24,93.77,93.77,0,0,1,9.55-19.5c.5-.8,1.05-1.58,1.66-2.5.32,1.83.68,3.41.87,5a19.86,19.86,0,0,0,2.55,7.76,94.88,94.88,0,0,0,8.55,11.86,8.76,8.76,0,0,1,2.13,6.3c-.13,1.86-.26,3.71-.27,5.57a12.39,12.39,0,0,0,.17,3.78,1.22,1.22,0,0,0,.56-.9c.83-2.66,1.68-5.32,2.44-8,.29-1,.6-1.05,1.35-.38a65.83,65.83,0,0,0,7.43,6.1c2.94,1.94,4.08,4.84,4.08,8.25a52.5,52.5,0,0,0,.51,7.82c.07.43.14.86.22,1.3a2.3,2.3,0,0,0,.39-.86s0,0,0-.07c.68-3,1.35-6,2-9,.36-1.58.43-1.61,1.67-.66l.32.26q18.8,14.91,37.57,29.86a302.2,302.2,0,0,1,29.91,26.75c12.1,12.67,22.31,26.65,29.75,42.56a8.87,8.87,0,0,0,3,3.53c.76-2,.71-4.08,1.39-6.07,1,1.41,1.31,3.09,2.41,4.5.35-.71.59-1.27.89-1.79.2-.35.18-1.09.86-.84.53.2.23.72.14,1.11-.41,1.91-.75,3.83-1.28,5.71-.38,1.36,0,1.77,1.37,1.86,2,.12,4,.46,6,.71,0,.19,0,.38,0,.57-2.32.41-4.67.73-7,1.27S350.86,578.8,351.89,581Z" transform="translate(-186.56 -422.99)"/><path d="M327.5,576.51c-47.21-16.66-94-12.15-140.94,2.82,7.05-13.83,17.63-24.44,27.6-36.39.3,2.49-1.07,3.5-1.9,4.69-3,4.35-6.14,8.59-9,13-1.2,1.82-3.36,3.94-2.11,6.08,1.42,2.43,4.45,1.32,6.7,1,5.68-.72,11.35-1.64,17-2.79,34.22-7,67.2-2,99.49,10A31.32,31.32,0,0,1,327.5,576.51Z" transform="translate(-186.56 -422.99)"/><path d="M199.49,581.73c2.09-.81,3.26.74,4.38,1.75,3.54,3.16,7.43,3.38,11.82,2.3a199.54,199.54,0,0,1,56.92-6.09,141.09,141.09,0,0,1,53.24,12.7A165,165,0,0,0,285,584a194.8,194.8,0,0,0-73.17,9c-2.63.83-4.05.5-5.52-1.8C204.2,587.92,201.79,584.9,199.49,581.73Z" transform="translate(-186.56 -422.99)"/><path class="cls-2" d="M314,577.46a192.86,192.86,0,0,0-97.71-2.35C249.07,564.84,281.62,566.4,314,577.46Z" transform="translate(-186.56 -422.99)"/><path class="cls-2" d="M298.1,577.55c-26.19-4.58-52.32-4.32-78.32,1.8C245.66,571,271.77,570.76,298.1,577.55Z" transform="translate(-186.56 -422.99)"/><polygon class="cls-3" points="137.91 206.98 138.01 207.04 137.93 207.02 137.91 206.98"/><path class="cls-4" d="M273.21,446.79c-.29-.27-.66-.55-.12-.89.06,0,.36.29.56.45Z" transform="translate(-186.56 -422.99)"/><path class="cls-5" d="M241.5,481.24l-.12.27-.44-.28.28-.3Z" transform="translate(-186.56 -422.99)"/><path d="M365.16,589.72c-.16,2.33-.38,4.55,1.1,6.52.46.61.68,1.4,1.13,2a15.51,15.51,0,0,1,2.76,11,31.41,31.41,0,0,0,0,5,6.19,6.19,0,0,1-6.38,6.63q-13.58.12-27.14,0c-3.85,0-6.37-2.77-6.38-6.63,0-3.23,0-6.47,0-9.69a5.18,5.18,0,0,1,.55-2.19c1.31-2.57,2.9-5,4-7.67.58-1.38.39-3.09.46-4.65,0-.15-.55-.42-.87-.48a1.49,1.49,0,0,1-1.37-1.72,1.42,1.42,0,0,1,1.57-1.38c.69,0,1.38,0,2.07,0h28.94c1,0,1.71.41,1.77,1.47s-.61,1.54-1.6,1.64C365.62,589.62,365.45,589.66,365.16,589.72Z" transform="translate(-186.56 -422.99)"/><path class="cls-6" d="M338.09,564.75c2.77,4.27,5.3,8.66,7.69,13.14-.93-1.16-31.18-38.35-75-58.76-.44-.2-.87-.4-1.29-.61l9-2.11c1.51-.36,3-.77,4.52-1.15-.11-.47-.43-.49-.67-.57A42.4,42.4,0,0,0,260,513.38c-33.13-20.17-30.32-45.46-30.32-45.46s5.77,3.08,14.58,8.23l.63.37c18.61,10.91,50.13,30.67,70.05,50.12,24.28,23.71,35.34,53.6,35.34,53.6-7.43-14.22-15.85-27.79-26.81-39.61a139.13,139.13,0,0,0-15.66-14.26c-10.27-8.17-21-15.68-31.83-23.09-11.29-7.73-22.63-15.35-34-23a2.11,2.11,0,0,0-1.79-.53c1.89,1.53,3.57,3,5.36,4.32,8.61,6.42,17.27,12.77,25.88,19.2,12.23,9.12,24.63,18,36.3,27.86S329.77,551.91,338.09,564.75Z" transform="translate(-186.56 -422.99)"/><path class="cls-7" d="M828.57,616.43c-.72,1.52-1.52,3-2.28,4.52l.34.36c.88-1.73,1.74-3.48,2.64-5.2a75.76,75.76,0,0,1,11.34-16.75,59,59,0,0,1,6.62-6c4.35-3.46,8.89-6.64,13.47-9.77,4.77-3.27,9.57-6.49,14.36-9.73a.88.88,0,0,1,.76-.23c-.8.65-1.51,1.27-2.27,1.83-3.64,2.71-7.31,5.4-10.95,8.12-5.17,3.86-10.41,7.62-15.35,11.78a64.91,64.91,0,0,0-12.84,14.23c-1.17,1.81-2.24,3.67-3.25,5.56h0c-.72,1.35-1.4,2.7-2.07,4.08a20.29,20.29,0,0,0-1.35,2.87l.67,0c.53-1.5,1.1-3,1.77-4.43a3.12,3.12,0,0,1,1-1.18.75.75,0,0,1,1.14.11l.92,1a.34.34,0,0,0,.36.14c.18,0,.14-.21.15-.34a5.76,5.76,0,0,0,.06-.82c0-.46.19-.62.64-.62.69,0,1.37-.06,2.06-.1.16,0,.34,0,.36-.2s-.19-.22-.33-.25-.51,0-.76-.08c-.49-.07-1-.17-1.55-.27l.76-.38,2.15-1c.12-.05.35-.06.25-.31a.3.3,0,0,0-.4-.16l-.45.12-2.22.62c-.19,0-.4.1-.52-.12s.06-.32.16-.45a5.38,5.38,0,0,1,1.21-1.12q1.8-1.23,3.56-2.51a59.08,59.08,0,0,1,5.52-3.64c5.18-2.93,10.52-5.58,15.82-8.29,3.45-1.76,6.93-3.47,10.34-5.32.23-.12.39-.23.37-.53s-.25-.3-.46-.35l-1.77-.43L863.43,590l-3.82-.89-1.91-.49c0-.2.19-.21.29-.24a17.78,17.78,0,0,1,9.46-.55,17.43,17.43,0,0,1,2.83.88c2.77,1.13,5.38,1.18,7.81-.67,2.22-1.7,4.4-3.46,6.66-5.09.1-.07.26-.13.23-.31-4.08-1.44-6.87-3-7.45-4.13.17,0,.32.07.47.12a23.6,23.6,0,0,0,8.82,1.3,1.48,1.48,0,0,0,1.13-.52,20.28,20.28,0,0,0,3.38-5.37c.16-.37.08-.43-.3-.49a36,36,0,0,1-7.18-1.61,4.74,4.74,0,0,1-1.7-.8,11.8,11.8,0,0,1,1.46.06,16.74,16.74,0,0,0,8-1.09,1.92,1.92,0,0,0,1.34-1.8,23.12,23.12,0,0,0-1.23-9.41,39.69,39.69,0,0,0-4-8.25c-.21-.34-.44-.67-.7-1.06-.14.77-.29,1.44-.37,2.12a8.52,8.52,0,0,1-1.08,3.28,38.64,38.64,0,0,1-3.62,5,3.73,3.73,0,0,0-.9,2.67c.06.79.11,1.57.12,2.35a5.47,5.47,0,0,1-.07,1.61.54.54,0,0,1-.24-.39c-.35-1.12-.71-2.25-1-3.38-.13-.43-.26-.45-.57-.16a27.89,27.89,0,0,1-3.15,2.58,3.9,3.9,0,0,0-1.72,3.49,21.57,21.57,0,0,1-.22,3.31l-.09.55a1,1,0,0,1-.17-.37v0c-.29-1.27-.58-2.55-.86-3.82-.16-.67-.18-.68-.71-.28l-.14.11c-5.29,4.21-10.6,8.4-15.88,12.63A126.94,126.94,0,0,0,843.6,592.2a67.28,67.28,0,0,0-12.58,18,3.86,3.86,0,0,1-1.28,1.49c-.32-.85-.3-1.73-.59-2.57-.42.6-.55,1.31-1,1.91a7.79,7.79,0,0,0-.37-.76c-.09-.15-.08-.46-.36-.36s-.1.31-.07.47c.18.81.32,1.62.55,2.42.16.57,0,.75-.58.78-.85.06-1.69.2-2.54.3,0,.08,0,.16,0,.25,1,.17,2,.3,3,.53S829,615.51,828.57,616.43Z" transform="translate(-186.56 -422.99)"/><path class="cls-8" d="M834.41,609.56c-1.17,1.81-2.24,3.67-3.25,5.56.39-.49,13.19-16.22,31.72-24.85l.55-.26-3.82-.89-1.91-.49c0-.2.19-.21.29-.24a17.78,17.78,0,0,1,9.46-.55c14-8.54,12.83-19.24,12.83-19.24s-2.44,1.31-6.17,3.49l-.26.15c-7.88,4.62-21.21,13-29.63,21.2a69.23,69.23,0,0,0-15,22.67,75.76,75.76,0,0,1,11.34-16.75,59,59,0,0,1,6.62-6c4.35-3.46,8.89-6.64,13.47-9.77,4.77-3.27,9.57-6.49,14.36-9.73a.88.88,0,0,1,.76-.23c-.8.65-1.51,1.27-2.27,1.83-3.64,2.71-7.31,5.4-10.95,8.12-5.17,3.86-10.41,7.62-15.35,11.78A64.91,64.91,0,0,0,834.41,609.56Z" transform="translate(-186.56 -422.99)"/><text class="cls-9" transform="translate(221.57 112.66)">PRO BOOK <tspan x="91.81" y="88.23">WRITER</tspan></text><rect x="241.91" y="119.38" width="410.03" height="6.49"/><polygon points="651.94 194.63 651.94 201.12 570.67 201.12 570.44 194.63 651.94 194.63"/><polygon points="361.29 198.12 221.44 198.12 221.44 191.63 355.6 191.63 361.29 198.12"/></svg>